<mxfile host="65bd71144e">
    <diagram id="GRGsdlj5yzgLRBacjzJt" name="Page-1">
        <mxGraphModel dx="2121" dy="595" grid="1" gridSize="10" guides="1" tooltips="1" connect="1" arrows="1" fold="1" page="1" pageScale="1" pageWidth="827" pageHeight="1169" math="0" shadow="0">
            <root>
                <mxCell id="0"/>
                <mxCell id="1" parent="0"/>
                <mxCell id="t5J90V0ew_fXhRU_Fx8T-35" style="edgeStyle=orthogonalEdgeStyle;rounded=0;orthogonalLoop=1;jettySize=auto;html=1;entryX=0;entryY=0.25;entryDx=0;entryDy=0;fontSize=12;endArrow=none;endFill=0;" parent="1" source="t5J90V0ew_fXhRU_Fx8T-3" target="t5J90V0ew_fXhRU_Fx8T-29" edge="1">
                    <mxGeometry relative="1" as="geometry"/>
                </mxCell>
                <mxCell id="t5J90V0ew_fXhRU_Fx8T-3" value="&lt;div&gt;Alimentation USB-C&lt;/div&gt;&lt;div&gt;(5V par dÃ©faut)&lt;br&gt;&lt;/div&gt;" style="rounded=1;whiteSpace=wrap;html=1;" parent="1" vertex="1">
                    <mxGeometry x="-610" y="25" width="270" height="217" as="geometry"/>
                </mxCell>
                <mxCell id="t5J90V0ew_fXhRU_Fx8T-36" style="edgeStyle=orthogonalEdgeStyle;rounded=0;orthogonalLoop=1;jettySize=auto;html=1;exitX=0;exitY=0.25;exitDx=0;exitDy=0;entryX=1;entryY=0.25;entryDx=0;entryDy=0;fontSize=12;endArrow=none;endFill=0;" parent="1" source="t5J90V0ew_fXhRU_Fx8T-6" target="t5J90V0ew_fXhRU_Fx8T-29" edge="1">
                    <mxGeometry relative="1" as="geometry"/>
                </mxCell>
                <mxCell id="t5J90V0ew_fXhRU_Fx8T-6" value="&lt;div&gt;Batterie&lt;/div&gt;&lt;div&gt;4.2V&lt;br&gt;&lt;/div&gt;" style="whiteSpace=wrap;html=1;aspect=fixed;" parent="1" vertex="1">
                    <mxGeometry x="680" y="101" width="130" height="130" as="geometry"/>
                </mxCell>
                <mxCell id="t5J90V0ew_fXhRU_Fx8T-37" style="edgeStyle=orthogonalEdgeStyle;rounded=0;orthogonalLoop=1;jettySize=auto;html=1;exitX=1;exitY=0.5;exitDx=0;exitDy=0;fontSize=12;endArrow=none;endFill=0;entryX=1;entryY=0.75;entryDx=0;entryDy=0;" parent="1" source="t5J90V0ew_fXhRU_Fx8T-26" target="t5J90V0ew_fXhRU_Fx8T-29" edge="1">
                    <mxGeometry relative="1" as="geometry">
                        <mxPoint x="250" y="340" as="targetPoint"/>
                    </mxGeometry>
                </mxCell>
                <mxCell id="t5J90V0ew_fXhRU_Fx8T-26" value="&lt;div style=&quot;font-size: 11px;&quot;&gt;&lt;font style=&quot;font-size: 11px;&quot;&gt;Charging&lt;/font&gt;&lt;/div&gt;&lt;div style=&quot;font-size: 11px;&quot;&gt;&lt;font style=&quot;font-size: 11px;&quot;&gt;LED&lt;/font&gt;&lt;br&gt;&lt;/div&gt;" style="ellipse;whiteSpace=wrap;html=1;aspect=fixed;fillColor=#e51400;fontColor=#ffffff;strokeColor=#B20000;" parent="1" vertex="1">
                    <mxGeometry x="178" y="340" width="50" height="50" as="geometry"/>
                </mxCell>
                <mxCell id="t5J90V0ew_fXhRU_Fx8T-38" value="" style="group" parent="1" connectable="0" vertex="1">
                    <mxGeometry x="-20" y="75" width="250" height="235" as="geometry"/>
                </mxCell>
                <mxCell id="t5J90V0ew_fXhRU_Fx8T-29" value="&lt;div&gt;Chargeur&lt;/div&gt;&lt;div&gt;MAX1555EZK+T&lt;br&gt;&lt;/div&gt;" style="rounded=0;whiteSpace=wrap;html=1;fontSize=13;" parent="t5J90V0ew_fXhRU_Fx8T-38" vertex="1">
                    <mxGeometry width="250" height="235" as="geometry"/>
                </mxCell>
                <mxCell id="t5J90V0ew_fXhRU_Fx8T-30" value="USB" style="text;html=1;resizable=0;autosize=1;align=left;verticalAlign=middle;points=[];fillColor=none;strokeColor=none;rounded=0;fontSize=12;fontStyle=1" parent="t5J90V0ew_fXhRU_Fx8T-38" vertex="1">
                    <mxGeometry x="2" y="43" width="50" height="30" as="geometry"/>
                </mxCell>
                <mxCell id="t5J90V0ew_fXhRU_Fx8T-31" value="DC" style="text;html=1;resizable=0;autosize=1;align=left;verticalAlign=middle;points=[];fillColor=none;strokeColor=none;rounded=0;fontSize=12;fontStyle=1" parent="t5J90V0ew_fXhRU_Fx8T-38" vertex="1">
                    <mxGeometry y="95" width="40" height="30" as="geometry"/>
                </mxCell>
                <mxCell id="t5J90V0ew_fXhRU_Fx8T-32" value="GND" style="text;html=1;resizable=0;autosize=1;align=left;verticalAlign=middle;points=[];fillColor=none;strokeColor=none;rounded=0;fontSize=12;fontStyle=1" parent="t5J90V0ew_fXhRU_Fx8T-38" vertex="1">
                    <mxGeometry y="155" width="50" height="30" as="geometry"/>
                </mxCell>
                <mxCell id="t5J90V0ew_fXhRU_Fx8T-33" value="&lt;div align=&quot;right&quot;&gt;Bat&lt;/div&gt;" style="text;html=1;resizable=0;autosize=1;align=right;verticalAlign=middle;points=[];fillColor=none;strokeColor=none;rounded=0;fontSize=12;fontStyle=1" parent="t5J90V0ew_fXhRU_Fx8T-38" vertex="1">
                    <mxGeometry x="209" y="44" width="40" height="30" as="geometry"/>
                </mxCell>
                <mxCell id="t5J90V0ew_fXhRU_Fx8T-34" value="&lt;u&gt;CHG&lt;/u&gt;" style="text;html=1;resizable=0;autosize=1;align=right;verticalAlign=middle;points=[];fillColor=none;strokeColor=none;rounded=0;fontSize=12;fontStyle=1" parent="t5J90V0ew_fXhRU_Fx8T-38" vertex="1">
                    <mxGeometry x="198" y="162" width="50" height="30" as="geometry"/>
                </mxCell>
                <mxCell id="t5J90V0ew_fXhRU_Fx8T-46" style="edgeStyle=orthogonalEdgeStyle;rounded=0;orthogonalLoop=1;jettySize=auto;html=1;exitX=1;exitY=0.25;exitDx=0;exitDy=0;fontSize=12;endArrow=none;endFill=0;entryX=0;entryY=0.5;entryDx=0;entryDy=0;entryPerimeter=0;" parent="1" source="t5J90V0ew_fXhRU_Fx8T-39" target="t5J90V0ew_fXhRU_Fx8T-47" edge="1">
                    <mxGeometry relative="1" as="geometry">
                        <mxPoint x="690" y="143.5" as="sourcePoint"/>
                        <mxPoint x="900" y="370" as="targetPoint"/>
                    </mxGeometry>
                </mxCell>
                <mxCell id="t5J90V0ew_fXhRU_Fx8T-49" value="" style="group" parent="1" connectable="0" vertex="1">
                    <mxGeometry x="939" y="345" width="61" height="60" as="geometry"/>
                </mxCell>
                <mxCell id="t5J90V0ew_fXhRU_Fx8T-47" value="" style="pointerEvents=1;verticalLabelPosition=bottom;shadow=0;dashed=0;align=center;html=1;verticalAlign=top;shape=mxgraph.electrical.signal_sources.source;aspect=fixed;points=[[0.5,0,0],[1,0.5,0],[0.5,1,0],[0,0.5,0]];elSignalType=none;elSourceType=dependent;fontSize=12;" parent="t5J90V0ew_fXhRU_Fx8T-49" vertex="1">
                    <mxGeometry x="1" width="60" height="60" as="geometry"/>
                </mxCell>
                <mxCell id="t5J90V0ew_fXhRU_Fx8T-48" value="5V" style="text;html=1;resizable=0;autosize=1;align=right;verticalAlign=middle;points=[];fillColor=none;strokeColor=none;rounded=0;fontSize=12;fontStyle=1" parent="t5J90V0ew_fXhRU_Fx8T-49" vertex="1">
                    <mxGeometry y="15" width="40" height="30" as="geometry"/>
                </mxCell>
                <mxCell id="t5J90V0ew_fXhRU_Fx8T-52" value="" style="endArrow=none;html=1;strokeWidth=1;rounded=0;fontSize=12;entryX=0;entryY=0.5;entryDx=0;entryDy=0;" parent="1" target="t5J90V0ew_fXhRU_Fx8T-39" edge="1">
                    <mxGeometry width="100" relative="1" as="geometry">
                        <mxPoint x="510" y="370" as="sourcePoint"/>
                        <mxPoint x="780" y="540" as="targetPoint"/>
                        <Array as="points">
                            <mxPoint x="510" y="420"/>
                        </Array>
                    </mxGeometry>
                </mxCell>
                <mxCell id="t5J90V0ew_fXhRU_Fx8T-56" value="" style="group" parent="1" connectable="0" vertex="1">
                    <mxGeometry x="617" y="330" width="210" height="180" as="geometry"/>
                </mxCell>
                <mxCell id="t5J90V0ew_fXhRU_Fx8T-39" value="&lt;div&gt;Step-up 5V&lt;/div&gt;&lt;div&gt;DIO6605B&lt;br&gt;&lt;/div&gt;FN8" style="rounded=0;whiteSpace=wrap;html=1;fontSize=12;" parent="t5J90V0ew_fXhRU_Fx8T-56" vertex="1">
                    <mxGeometry width="210" height="180" as="geometry"/>
                </mxCell>
                <mxCell id="t5J90V0ew_fXhRU_Fx8T-40" value="V_in" style="text;html=1;resizable=0;autosize=1;align=left;verticalAlign=middle;points=[];fillColor=none;strokeColor=none;rounded=0;fontSize=12;fontStyle=1" parent="t5J90V0ew_fXhRU_Fx8T-56" vertex="1">
                    <mxGeometry x="1" y="24" width="50" height="30" as="geometry"/>
                </mxCell>
                <mxCell id="t5J90V0ew_fXhRU_Fx8T-41" value="V_out" style="text;html=1;resizable=0;autosize=1;align=right;verticalAlign=middle;points=[];fillColor=none;strokeColor=none;rounded=0;fontSize=12;fontStyle=1" parent="t5J90V0ew_fXhRU_Fx8T-56" vertex="1">
                    <mxGeometry x="148" y="30" width="60" height="30" as="geometry"/>
                </mxCell>
                <mxCell id="t5J90V0ew_fXhRU_Fx8T-42" value="EN" style="text;html=1;resizable=0;autosize=1;align=left;verticalAlign=middle;points=[];fillColor=none;strokeColor=none;rounded=0;fontSize=12;fontStyle=1" parent="t5J90V0ew_fXhRU_Fx8T-56" vertex="1">
                    <mxGeometry x="2" y="74" width="40" height="30" as="geometry"/>
                </mxCell>
                <mxCell id="t5J90V0ew_fXhRU_Fx8T-43" value="GND / AGND / PGND" style="text;html=1;resizable=0;autosize=1;align=left;verticalAlign=middle;points=[];fillColor=none;strokeColor=none;rounded=0;fontSize=12;fontStyle=1" parent="t5J90V0ew_fXhRU_Fx8T-56" vertex="1">
                    <mxGeometry x="1" y="120" width="130" height="30" as="geometry"/>
                </mxCell>
                <mxCell id="t5J90V0ew_fXhRU_Fx8T-44" value="SW" style="text;html=1;resizable=0;autosize=1;align=right;verticalAlign=middle;points=[];fillColor=none;strokeColor=none;rounded=0;fontSize=12;fontStyle=1" parent="t5J90V0ew_fXhRU_Fx8T-56" vertex="1">
                    <mxGeometry x="169" y="130" width="40" height="30" as="geometry"/>
                </mxCell>
                <mxCell id="t5J90V0ew_fXhRU_Fx8T-57" value="" style="group" parent="1" connectable="0" vertex="1">
                    <mxGeometry x="939" y="610" width="61" height="60" as="geometry"/>
                </mxCell>
                <mxCell id="t5J90V0ew_fXhRU_Fx8T-58" value="" style="pointerEvents=1;verticalLabelPosition=bottom;shadow=0;dashed=0;align=center;html=1;verticalAlign=top;shape=mxgraph.electrical.signal_sources.source;aspect=fixed;points=[[0.5,0,0],[1,0.5,0],[0.5,1,0],[0,0.5,0]];elSignalType=none;elSourceType=dependent;fontSize=12;" parent="t5J90V0ew_fXhRU_Fx8T-57" vertex="1">
                    <mxGeometry x="1" width="60" height="60" as="geometry"/>
                </mxCell>
                <mxCell id="t5J90V0ew_fXhRU_Fx8T-59" value="3.3V" style="text;html=1;resizable=0;autosize=1;align=right;verticalAlign=middle;points=[];fillColor=none;strokeColor=none;rounded=0;fontSize=12;fontStyle=1" parent="t5J90V0ew_fXhRU_Fx8T-57" vertex="1">
                    <mxGeometry x="-5" y="15" width="50" height="30" as="geometry"/>
                </mxCell>
                <mxCell id="t5J90V0ew_fXhRU_Fx8T-60" value="" style="group" parent="1" connectable="0" vertex="1">
                    <mxGeometry x="620" y="600" width="210" height="180" as="geometry"/>
                </mxCell>
                <mxCell id="t5J90V0ew_fXhRU_Fx8T-61" value="&lt;div&gt;Step-down 3.3V&lt;/div&gt;&lt;div&gt;LM3671MF-3.3/NOPB&lt;br&gt;&lt;/div&gt;" style="rounded=0;whiteSpace=wrap;html=1;fontSize=12;" parent="t5J90V0ew_fXhRU_Fx8T-60" vertex="1">
                    <mxGeometry width="210" height="180" as="geometry"/>
                </mxCell>
                <mxCell id="t5J90V0ew_fXhRU_Fx8T-62" value="V_in" style="text;html=1;resizable=0;autosize=1;align=left;verticalAlign=middle;points=[];fillColor=none;strokeColor=none;rounded=0;fontSize=12;fontStyle=1" parent="t5J90V0ew_fXhRU_Fx8T-60" vertex="1">
                    <mxGeometry x="1" y="24" width="50" height="30" as="geometry"/>
                </mxCell>
                <mxCell id="t5J90V0ew_fXhRU_Fx8T-63" value="V_out" style="text;html=1;resizable=0;autosize=1;align=right;verticalAlign=middle;points=[];fillColor=none;strokeColor=none;rounded=0;fontSize=12;fontStyle=1" parent="t5J90V0ew_fXhRU_Fx8T-60" vertex="1">
                    <mxGeometry x="148" y="25" width="60" height="30" as="geometry"/>
                </mxCell>
                <mxCell id="t5J90V0ew_fXhRU_Fx8T-64" value="EN" style="text;html=1;resizable=0;autosize=1;align=left;verticalAlign=middle;points=[];fillColor=none;strokeColor=none;rounded=0;fontSize=12;fontStyle=1" parent="t5J90V0ew_fXhRU_Fx8T-60" vertex="1">
                    <mxGeometry x="2" y="74" width="40" height="30" as="geometry"/>
                </mxCell>
                <mxCell id="t5J90V0ew_fXhRU_Fx8T-65" value="GND" style="text;html=1;resizable=0;autosize=1;align=left;verticalAlign=middle;points=[];fillColor=none;strokeColor=none;rounded=0;fontSize=12;fontStyle=1" parent="t5J90V0ew_fXhRU_Fx8T-60" vertex="1">
                    <mxGeometry x="1" y="115" width="50" height="30" as="geometry"/>
                </mxCell>
                <mxCell id="t5J90V0ew_fXhRU_Fx8T-66" value="FB" style="text;html=1;resizable=0;autosize=1;align=right;verticalAlign=middle;points=[];fillColor=none;strokeColor=none;rounded=0;fontSize=12;fontStyle=1" parent="t5J90V0ew_fXhRU_Fx8T-60" vertex="1">
                    <mxGeometry x="168" y="121" width="40" height="30" as="geometry"/>
                </mxCell>
                <mxCell id="t5J90V0ew_fXhRU_Fx8T-67" value="" style="endArrow=none;html=1;strokeWidth=1;rounded=0;fontSize=12;" parent="1" edge="1">
                    <mxGeometry width="100" relative="1" as="geometry">
                        <mxPoint x="510" y="420" as="sourcePoint"/>
                        <mxPoint x="620" y="640" as="targetPoint"/>
                        <Array as="points">
                            <mxPoint x="510" y="640"/>
                        </Array>
                    </mxGeometry>
                </mxCell>
                <mxCell id="t5J90V0ew_fXhRU_Fx8T-68" value="" style="endArrow=none;html=1;strokeWidth=1;rounded=0;fontSize=12;" parent="1" edge="1">
                    <mxGeometry width="100" relative="1" as="geometry">
                        <mxPoint x="510" y="640" as="sourcePoint"/>
                        <mxPoint x="620" y="695" as="targetPoint"/>
                        <Array as="points">
                            <mxPoint x="510" y="695"/>
                        </Array>
                    </mxGeometry>
                </mxCell>
                <mxCell id="t5J90V0ew_fXhRU_Fx8T-69" value="" style="endArrow=none;html=1;strokeWidth=1;rounded=0;fontSize=12;" parent="1" target="t5J90V0ew_fXhRU_Fx8T-59" edge="1">
                    <mxGeometry width="100" relative="1" as="geometry">
                        <mxPoint x="830" y="639.5" as="sourcePoint"/>
                        <mxPoint x="930" y="670" as="targetPoint"/>
                    </mxGeometry>
                </mxCell>
                <mxCell id="t5J90V0ew_fXhRU_Fx8T-71" value="" style="endArrow=none;html=1;strokeWidth=1;rounded=0;fontSize=12;exitX=1;exitY=0.75;exitDx=0;exitDy=0;" parent="1" source="t5J90V0ew_fXhRU_Fx8T-61" edge="1">
                    <mxGeometry width="100" relative="1" as="geometry">
                        <mxPoint x="830" y="740" as="sourcePoint"/>
                        <mxPoint x="880" y="640" as="targetPoint"/>
                        <Array as="points">
                            <mxPoint x="880" y="735"/>
                        </Array>
                    </mxGeometry>
                </mxCell>
                <mxCell id="t5J90V0ew_fXhRU_Fx8T-72" value="GND" style="text;html=1;resizable=0;autosize=1;align=left;verticalAlign=middle;points=[];fillColor=none;strokeColor=none;rounded=0;fontSize=12;fontStyle=1" parent="1" vertex="1">
                    <mxGeometry x="680" y="190" width="50" height="30" as="geometry"/>
                </mxCell>
                <mxCell id="t5J90V0ew_fXhRU_Fx8T-73" value="" style="pointerEvents=1;verticalLabelPosition=bottom;shadow=0;dashed=0;align=center;html=1;verticalAlign=top;shape=mxgraph.electrical.signal_sources.protective_earth;fontSize=12;" parent="1" vertex="1">
                    <mxGeometry x="310" y="920" width="85" height="60" as="geometry"/>
                </mxCell>
                <mxCell id="t5J90V0ew_fXhRU_Fx8T-74" value="" style="endArrow=none;html=1;strokeWidth=1;rounded=0;fontSize=12;entryX=0.001;entryY=0.72;entryDx=0;entryDy=0;exitX=0.5;exitY=0;exitDx=0;exitDy=0;exitPerimeter=0;entryPerimeter=0;" parent="1" source="t5J90V0ew_fXhRU_Fx8T-73" target="t5J90V0ew_fXhRU_Fx8T-61" edge="1">
                    <mxGeometry width="100" relative="1" as="geometry">
                        <mxPoint x="310" y="770" as="sourcePoint"/>
                        <mxPoint x="410" y="770" as="targetPoint"/>
                        <Array as="points">
                            <mxPoint x="350" y="730"/>
                        </Array>
                    </mxGeometry>
                </mxCell>
                <mxCell id="t5J90V0ew_fXhRU_Fx8T-75" value="" style="endArrow=none;html=1;strokeWidth=1;rounded=0;fontSize=12;entryX=0;entryY=0.75;entryDx=0;entryDy=0;" parent="1" target="t5J90V0ew_fXhRU_Fx8T-39" edge="1">
                    <mxGeometry width="100" relative="1" as="geometry">
                        <mxPoint x="350" y="730" as="sourcePoint"/>
                        <mxPoint x="370" y="680" as="targetPoint"/>
                        <Array as="points">
                            <mxPoint x="350" y="465"/>
                        </Array>
                    </mxGeometry>
                </mxCell>
                <mxCell id="t5J90V0ew_fXhRU_Fx8T-76" value="" style="endArrow=none;html=1;strokeWidth=1;rounded=0;fontSize=12;entryX=-0.017;entryY=0.554;entryDx=0;entryDy=0;entryPerimeter=0;" parent="1" target="t5J90V0ew_fXhRU_Fx8T-72" edge="1">
                    <mxGeometry width="100" relative="1" as="geometry">
                        <mxPoint x="350" y="470" as="sourcePoint"/>
                        <mxPoint x="480" y="360" as="targetPoint"/>
                        <Array as="points">
                            <mxPoint x="350" y="207"/>
                        </Array>
                    </mxGeometry>
                </mxCell>
                <mxCell id="t5J90V0ew_fXhRU_Fx8T-77" value="" style="endArrow=none;html=1;strokeWidth=1;rounded=0;fontSize=12;entryX=0.016;entryY=0.587;entryDx=0;entryDy=0;entryPerimeter=0;" parent="1" target="t5J90V0ew_fXhRU_Fx8T-32" edge="1">
                    <mxGeometry width="100" relative="1" as="geometry">
                        <mxPoint x="350" y="440" as="sourcePoint"/>
                        <mxPoint x="-20" y="310" as="targetPoint"/>
                        <Array as="points">
                            <mxPoint x="-120" y="440"/>
                            <mxPoint x="-120" y="247"/>
                        </Array>
                    </mxGeometry>
                </mxCell>
                <mxCell id="t5J90V0ew_fXhRU_Fx8T-79" value="VBUS: 5V" style="text;html=1;resizable=0;autosize=1;align=right;verticalAlign=middle;points=[];fillColor=none;strokeColor=none;rounded=0;fontSize=10;fontStyle=1" parent="1" vertex="1">
                    <mxGeometry x="-412" y="118" width="70" height="30" as="geometry"/>
                </mxCell>
                <mxCell id="t5J90V0ew_fXhRU_Fx8T-80" value="&lt;div align=&quot;right&quot;&gt;GND&lt;/div&gt;" style="text;html=1;resizable=0;autosize=1;align=right;verticalAlign=middle;points=[];fillColor=none;strokeColor=none;rounded=0;fontSize=10;fontStyle=1" parent="1" vertex="1">
                    <mxGeometry x="-394" y="173" width="50" height="30" as="geometry"/>
                </mxCell>
                <mxCell id="t5J90V0ew_fXhRU_Fx8T-81" value="CC" style="text;html=1;resizable=0;autosize=1;align=right;verticalAlign=middle;points=[];fillColor=none;strokeColor=none;rounded=0;fontSize=10;fontStyle=1" parent="1" vertex="1">
                    <mxGeometry x="-384" y="60" width="40" height="30" as="geometry"/>
                </mxCell>
                <mxCell id="t5J90V0ew_fXhRU_Fx8T-82" value="" style="endArrow=none;html=1;strokeWidth=1;rounded=0;fontSize=10;exitX=1;exitY=0.75;exitDx=0;exitDy=0;" parent="1" source="t5J90V0ew_fXhRU_Fx8T-3" edge="1">
                    <mxGeometry width="100" relative="1" as="geometry">
                        <mxPoint x="-320" y="240" as="sourcePoint"/>
                        <mxPoint x="-120" y="250" as="targetPoint"/>
                        <Array as="points">
                            <mxPoint x="-120" y="188"/>
                        </Array>
                    </mxGeometry>
                </mxCell>
                <mxCell id="t5J90V0ew_fXhRU_Fx8T-83" value="" style="endArrow=none;html=1;strokeWidth=1;rounded=0;fontSize=10;" parent="1" edge="1">
                    <mxGeometry width="100" relative="1" as="geometry">
                        <mxPoint x="-240" y="130" as="sourcePoint"/>
                        <mxPoint x="880" y="380" as="targetPoint"/>
                        <Array as="points">
                            <mxPoint x="-240" y="40"/>
                            <mxPoint x="880" y="40"/>
                        </Array>
                    </mxGeometry>
                </mxCell>
                <mxCell id="t5J90V0ew_fXhRU_Fx8T-84" value="" style="verticalLabelPosition=bottom;shadow=0;dashed=0;align=center;html=1;verticalAlign=top;shape=mxgraph.electrical.transistors.pmos;pointerEvents=1;fontSize=10;rotation=-179;" parent="1" vertex="1">
                    <mxGeometry x="509.88" y="211.41" width="58.07" height="110.57" as="geometry"/>
                </mxCell>
                <mxCell id="t5J90V0ew_fXhRU_Fx8T-85" value="" style="endArrow=none;html=1;strokeWidth=1;rounded=0;fontSize=10;exitX=0;exitY=0.5;exitDx=0;exitDy=0;exitPerimeter=0;" parent="1" source="t5J90V0ew_fXhRU_Fx8T-84" edge="1">
                    <mxGeometry width="100" relative="1" as="geometry">
                        <mxPoint x="650" y="280" as="sourcePoint"/>
                        <mxPoint x="880" y="267" as="targetPoint"/>
                    </mxGeometry>
                </mxCell>
                <mxCell id="t5J90V0ew_fXhRU_Fx8T-86" value="" style="endArrow=none;html=1;strokeWidth=1;rounded=0;fontSize=10;exitX=1;exitY=1;exitDx=0;exitDy=0;exitPerimeter=0;entryX=0;entryY=0.25;entryDx=0;entryDy=0;" parent="1" source="t5J90V0ew_fXhRU_Fx8T-84" target="t5J90V0ew_fXhRU_Fx8T-6" edge="1">
                    <mxGeometry width="100" relative="1" as="geometry">
                        <mxPoint x="517" y="260.17" as="sourcePoint"/>
                        <mxPoint x="550" y="160" as="targetPoint"/>
                        <Array as="points">
                            <mxPoint x="511" y="133"/>
                        </Array>
                    </mxGeometry>
                </mxCell>
                <mxCell id="t5J90V0ew_fXhRU_Fx8T-87" value="" style="endArrow=none;html=1;strokeWidth=1;rounded=0;fontSize=10;entryX=-0.052;entryY=0.56;entryDx=0;entryDy=0;entryPerimeter=0;exitX=1;exitY=0;exitDx=0;exitDy=0;exitPerimeter=0;" parent="1" source="t5J90V0ew_fXhRU_Fx8T-84" target="t5J90V0ew_fXhRU_Fx8T-40" edge="1">
                    <mxGeometry width="100" relative="1" as="geometry">
                        <mxPoint x="500" y="364.8" as="sourcePoint"/>
                        <mxPoint x="600" y="364.8" as="targetPoint"/>
                        <Array as="points">
                            <mxPoint x="509" y="371"/>
                        </Array>
                    </mxGeometry>
                </mxCell>
                <mxCell id="t5J90V0ew_fXhRU_Fx8T-88" value="&lt;font style=&quot;font-size: 9px;&quot;&gt;PMOS - tension seuil 5V&lt;/font&gt;" style="text;html=1;resizable=0;autosize=1;align=center;verticalAlign=middle;points=[];fillColor=none;strokeColor=none;rounded=0;fontSize=10;" parent="1" vertex="1">
                    <mxGeometry x="395" y="265.17" width="120" height="30" as="geometry"/>
                </mxCell>
                <mxCell id="t5J90V0ew_fXhRU_Fx8T-89" value="" style="endArrow=none;html=1;strokeWidth=1;rounded=0;fontSize=9;" parent="1" edge="1">
                    <mxGeometry width="100" relative="1" as="geometry">
                        <mxPoint x="-210" y="130" as="sourcePoint"/>
                        <mxPoint x="510" y="640" as="targetPoint"/>
                        <Array as="points">
                            <mxPoint x="-210" y="630"/>
                        </Array>
                    </mxGeometry>
                </mxCell>
                <mxCell id="2" value="VDD" style="text;html=1;resizable=0;autosize=1;align=left;verticalAlign=middle;points=[];fillColor=none;strokeColor=none;rounded=0;fontSize=12;fontStyle=1" vertex="1" parent="1">
                    <mxGeometry x="680" y="123" width="40" height="20" as="geometry"/>
                </mxCell>
            </root>
        </mxGraphModel>
    </diagram>
</mxfile>